<?xml version="1.0" encoding="UTF-8"?>
<svg width="16px" height="16px" viewBox="0 0 16 16" version="1.1" xmlns="http://www.w3.org/2000/svg" xmlns:xlink="http://www.w3.org/1999/xlink">
    <title>Combined Shape</title>
    <g id="Wireframes-v1" stroke="none" stroke-width="1" fill="none" fill-rule="evenodd">
        <g id="op1" transform="translate(-776.000000, -920.000000)" fill="#000000" fill-rule="nonzero">
            <path d="M787,920 C789.761424,920 792,922.238576 792,925 L792,931 C792,933.761424 789.761424,936 787,936 L781,936 C778.238576,936 776,933.761424 776,931 L776,925 C776,922.238576 778.238576,920 781,920 L787,920 Z M787,920.7 L781,920.7 C778.695023,920.7 776.813635,922.513595 776.704959,924.791661 L776.7,925 L776.7,931 C776.7,933.304977 778.513595,935.186365 780.791661,935.295041 L781,935.3 L787,935.3 C789.304977,935.3 791.186365,933.486405 791.295041,931.208339 L791.3,931 L791.3,925 C791.3,922.695023 789.486405,920.813635 787.208339,920.704959 L787,920.7 Z M783.07234,925.856025 C784.766418,925.856025 786.14468,927.234316 786.14468,928.927596 C786.14468,930.62171 784.766418,932 783.07234,932 C781.378262,932 780,930.62171 780,928.927596 C780,927.234316 781.378262,925.856025 783.07234,925.856025 Z M788,924 L788,931.99975 L787.29837,931.99975 L787.29837,924.702478 L780.000417,924.702478 L780.000417,924 L788,924 Z M783.07234,926.486006 C781.725743,926.486006 780.6308,927.580971 780.6308,928.927596 C780.6308,930.274221 781.725743,931.37002 783.07234,931.37002 C784.418937,931.37002 785.514713,930.274221 785.514713,928.927596 C785.514713,927.580971 784.418937,926.486006 783.07234,926.486006 Z" id="Combined-Shape"></path>
        </g>
    </g>
</svg>