<?xml version="1.0" encoding="UTF-8"?>
<svg width="12px" height="16px" viewBox="0 0 12 16" version="1.1" xmlns="http://www.w3.org/2000/svg" xmlns:xlink="http://www.w3.org/1999/xlink">
    <title>Shape</title>
    <g id="Wireframes-v1" stroke="none" stroke-width="1" fill="none" fill-rule="evenodd">
        <g id="op1" transform="translate(-818.000000, -920.000000)" fill="#000000" fill-rule="nonzero">
            <path d="M825.924198,920 C826.046647,920 826.169096,920.053274 826.274052,920.142064 L826.274052,920.142064 L829.650146,923.551609 C829.877551,923.800222 830,924.102109 830,924.439512 L830,924.439512 L830,935.058824 C830,935.573807 829.580175,936 829.072886,936 L829.072886,936 L818.927114,936 C818.419825,936 818,935.573807 818,935.058824 L818,935.058824 L818,920.941176 C818,920.426193 818.419825,920 818.927114,920 L818.927114,920 Z M825.469388,920.621532 L818.927114,920.621532 C818.752187,920.621532 818.612245,920.763596 818.612245,920.941176 L818.612245,920.941176 L818.612245,935.041065 C818.612245,935.218646 818.752187,935.36071 818.927114,935.36071 L818.927114,935.36071 L829.072886,935.36071 C829.247813,935.36071 829.387755,935.218646 829.387755,935.058824 L829.387755,935.058824 L829.387755,924.617092 L826.291545,924.617092 C825.836735,924.617092 825.469388,924.244173 825.469388,923.782464 L825.469388,923.782464 L825.469388,920.621532 Z M826.06414,920.923418 L826.06414,923.764706 C826.06414,923.889012 826.169096,923.99556 826.291545,923.99556 L826.291545,923.99556 L829.090379,923.99556 L826.06414,920.923418 Z" id="Shape"></path>
        </g>
    </g>
</svg>