<?xml version="1.0" encoding="UTF-8"?>
<svg width="17px" height="16px" viewBox="0 0 17 16" version="1.1" xmlns="http://www.w3.org/2000/svg" xmlns:xlink="http://www.w3.org/1999/xlink">
    <title>Combined Shape</title>
    <g id="Wireframes-v1" stroke="none" stroke-width="1" fill="none" fill-rule="evenodd">
        <g id="op1" transform="translate(-796.000000, -920.000000)" fill="#000000" fill-rule="nonzero">
            <path d="M804.543325,920.001961 L809.283002,920.585432 C809.357668,920.594624 809.425161,920.635533 809.469075,920.698213 L812.866283,925.544357 C812.946246,925.592127 813.000001,925.68107 813.000001,925.782902 L812.998839,925.801308 C813.005398,925.873581 812.98414,925.947708 812.935781,926.005938 L804.716167,935.903101 L804.700417,935.920154 C804.6929,935.927794 804.684889,935.935026 804.676403,935.941796 L804.716167,935.903101 C804.69532,935.928203 804.671182,935.948425 804.645032,935.963768 C804.641872,935.96524 804.637956,935.967429 804.633967,935.969531 C804.612737,935.980284 804.599242,935.985433 804.585493,935.989437 L804.633967,935.969531 C804.610958,935.981652 804.587039,935.990035 804.562869,935.994896 C804.552153,935.99705 804.541758,935.998445 804.531328,935.99922 C804.518418,936.000246 804.505284,936.000252 804.492264,935.999287 C804.485936,935.998761 804.479269,935.99802 804.472632,935.997025 C804.459731,935.99513 804.447286,935.992305 804.4351,935.988599 C804.425964,935.985789 804.416591,935.982367 804.407392,935.978395 C804.368818,935.961851 804.333885,935.936011 804.306038,935.902072 L796.064466,926.006234 C796.015325,925.947234 795.994071,925.871862 796.001416,925.798634 C796.000154,925.793745 796.000001,925.788342 796.000001,925.782902 C796.000001,925.680199 796.054677,925.590608 796.135773,925.543142 L799.5674,920.69713 C799.611324,920.63507 799.67844,920.594601 799.752623,920.585443 L804.479288,920.001972 C804.500557,919.999346 804.522055,919.999343 804.543325,920.001961 Z M808.944,926.058 L799.983,926.058 L804.489,935.075 L808.944,926.058 Z M812.186,926.058 L809.545,926.058 L805.67,933.904 L812.186,926.058 Z M799.378,926.058 L796.814,926.058 L803.225,933.755 L799.378,926.058 Z M799.465,921.779 L796.827,925.507 L799.323,925.507 L799.465,921.779 Z M809.454,921.621 L809.601,925.507 L812.176,925.507 L809.454,921.621 Z M804.509389,920.818597 L800.201,925.507 L808.731,925.507 L804.509389,920.818597 Z M803.95,920.622 L800.028,921.106 L799.878,925.054 L803.95,920.622 Z M805.063,920.621 L809.046,925.044 L808.896,921.093 L805.063,920.621 Z" id="Combined-Shape"></path>
        </g>
    </g>
</svg>