<?xml version="1.0" encoding="UTF-8"?>
<svg width="18px" height="14px" viewBox="0 0 18 14" version="1.1" xmlns="http://www.w3.org/2000/svg" xmlns:xlink="http://www.w3.org/1999/xlink">
    <!-- Generator: Sketch 64 (93537) - https://sketch.com -->
    <title>tag/content/light_theme/default</title>
    <desc>Created with Sketch.</desc>
    <defs>
        <path d="M5.75810852,5.28362918 C6.3913072,5.29878757 7.12786595,5.57746572 7.65936495,6.19251383 C7.89923372,6.43554918 8.38530441,7.61325467 8.38530441,7.61325467 L8.38530441,7.61325467 L11.1695237,15.0264925 C11.3302278,15.4489676 11.6666774,15.6814476 12.0055019,15.7115302 C12.3562012,15.7255159 12.7422606,15.5249656 12.8924094,15.087977 L12.8924094,15.087977 L13.7729838,12.757107 L15.2528342,16.6298397 C14.5247837,17.9320975 13.8291906,18.266436 13.0137952,18.5672615 C12.7005672,18.6659534 12.3686036,18.7189937 12.0340012,18.7303406 C11.9587948,18.7324516 11.8374091,18.7319239 11.7622027,18.7303406 C11.1560657,18.7089661 10.5596923,18.5495814 10.0799548,18.2661721 C9.80604524,18.0827741 9.0785225,17.5993422 8.5969378,16.4189979 L8.5969378,16.4189979 L5.66151413,8.24868259 L5.66151413,15.6914752 L5.70611019,15.5663951 L6.78116557,12.5460014 L8.17340714,16.4794269 C7.96388481,17.387445 7.32608195,18.1442586 6.57111547,18.5076242 C6.28928947,18.637718 6.06551751,18.7044801 5.76653917,18.722688 L5.76653917,18.722688 L5.69238832,18.7253268 C5.08889013,18.7620064 4.48169758,18.5883721 3.99589077,18.2661721 C3.24277146,17.7204641 3.02770761,17.0538981 3,15.9031085 L3,15.9031085 L3,7.82805464 C3.09156706,6.49465875 3.93757284,5.76924706 4.69570591,5.43596406 C5.05590487,5.31484221 5.20842869,5.28528742 5.60214067,5.28528742 Z M12.0789403,5.26826703 C12.739437,5.26061445 13.3988782,5.40997168 13.922684,5.73982422 C14.195538,5.91926399 14.9198942,6.37419661 15.4027983,7.55533256 L15.4027983,7.55533256 L18.3060284,15.7530916 L18.3060284,8.27968873 L18.2368913,8.48182236 L17.2185706,11.428593 L15.8289678,7.4946397 C16.009727,6.61644031 16.6760291,5.85989054 17.4317872,5.49599722 C17.658198,5.39123606 17.9521626,5.32104344 18.19942,5.28832207 L18.19942,5.28832207 C18.2181557,5.28409995 18.2374191,5.28304443 18.2561547,5.28146113 C18.2611684,5.28093337 18.26671,5.28014172 18.2717237,5.27961396 L18.2717237,5.27961396 L18.4735113,5.27223431 C19.011486,5.27178546 19.5454529,5.43433679 20.0033176,5.70947778 C20.7611868,6.28342119 20.9717646,6.91884911 21,8.09866566 L21,8.09866566 L21,16.1468036 C20.9108079,17.5073793 20.0341918,18.2343743 19.2757948,18.5671296 C18.9451507,18.6877236 18.7915713,18.7178062 18.4002343,18.7178062 C17.7352516,18.7178062 16.8879264,18.4758264 16.3432739,17.7797056 C16.0989191,17.5395729 15.6173344,16.3576453 15.6173344,16.3576453 L15.6173344,16.3576453 L12.8331151,8.97580951 C12.6600085,8.55966756 12.2623383,8.3256042 11.9285276,8.28971624 C11.5820505,8.28074425 11.2424343,8.48287789 11.0793552,8.91458888 L11.0793552,8.91458888 L10.2307106,11.2467782 L8.74927689,7.34369918 C9.47548023,6.04064973 10.1700177,5.7400881 10.9862048,5.436096 C11.2622254,5.34980658 11.6459099,5.29623853 11.960985,5.27486408 L11.960985,5.27486408 L11.960985,5.27222526 L12.019303,5.2716975 C12.0388302,5.27037809 12.059413,5.26905868 12.0789403,5.26826703 L12.0789403,5.26826703 Z" id="path-1"></path>
    </defs>
    <g id="Wireframes-v2" stroke="none" stroke-width="1" fill="none" fill-rule="evenodd">
        <g id="Home" transform="translate(-878.000000, -954.000000)">
            <g id="icons-logo/logo-abc" transform="translate(875.000000, 949.000000)">
                <rect id="base-icon-size" x="0" y="0" width="24" height="24"></rect>
                <mask id="mask-2" fill="white">
                    <use xlink:href="#path-1"></use>
                </mask>
                <use id="abc-logo" fill="#000000" fill-rule="evenodd" xlink:href="#path-1"></use>
                <g id="Colour/Black" stroke-width="1" fill-rule="evenodd" mask="url(#mask-2)" fill="#40464B">
                    <g id="colour/_brand_agnostic/grey/charcoal-light">
                        <rect id="Colour" x="0" y="0" width="24" height="24"></rect>
                    </g>
                </g>
            </g>
        </g>
    </g>
</svg>