<?xml version="1.0" encoding="UTF-8"?>
<svg width="296px" height="73px" viewBox="0 0 296 73" version="1.1" xmlns="http://www.w3.org/2000/svg" xmlns:xlink="http://www.w3.org/1999/xlink">
    <title>zz_materials/DLS/assets/logo</title>
    <defs>
        <path d="M30.7214166,28.3140398 C34.3680959,28.1500559 38.8454078,29.6047056 42.0029691,33.1741812 C43.3183784,34.4761563 45.9839274,40.7852929 45.9839274,40.7852929 L45.9839274,40.7852929 L61.2522266,80.4990667 C62.1335075,82.7623263 63.9785536,84.0077553 65.8366235,84.1689118 C67.7598128,84.2438354 69.8769127,83.1694586 70.7003098,80.828448 L70.7003098,80.828448 L75.5292658,68.3416448 L83.6445745,89.0884267 C79.6520394,96.0648078 75.837497,97.8559071 71.3659735,99.4674723 C69.6482717,99.9961788 67.8278262,100.280323 65.9929098,100.34111 C65.5804877,100.35242 64.914824,100.349592 64.502402,100.34111 C61.1784248,100.226604 57.9079901,99.3727575 55.2771714,97.8544934 C53.7750868,96.8720041 49.7854459,94.2821905 47.1444976,87.9589174 L47.1444976,87.9589174 L31.0470129,44.189371 L31.0470129,84.0614741 L31.291572,83.3899886 L31.291572,83.3914022 L37.187037,67.2107218 L44.8219101,88.2826441 C43.6729167,93.1470265 40.1752881,97.2013854 36.0351494,99.1479866 C34.4896519,99.8449178 33.2625154,100.202572 31.6229568,100.300114 L31.6229568,100.300114 L31.2163231,100.314251 C27.9068168,100.510749 24.5770513,99.5805646 21.9129494,97.8544934 C17.7829403,94.9310575 16.6035579,91.3601682 16.4516129,85.1952244 L16.4516129,85.1952244 L16.4516129,41.936007 C16.9537549,34.7928148 21.5931414,30.9066807 25.7506453,29.121236 C27.72593,28.472369 28.5623509,28.3140398 30.7214166,28.3140398 Z M66.2393501,28.2228591 L66.2393501,28.235582 C69.8614288,28.1818631 73.4777192,28.9819912 76.3502028,30.7490583 C77.846499,31.7103428 81.8187747,34.1474818 84.4669585,40.4749959 L84.4669585,40.4749959 L100.387898,84.3915622 L100.387898,44.3554753 L100.008759,45.4383341 L94.4244192,61.2246051 L86.8040169,40.1498555 C87.795277,35.4452159 91.4491919,31.3922707 95.5936719,29.4428423 C96.8352794,28.8816217 98.4473432,28.5055898 99.8032712,28.3302968 L99.8032712,28.3302968 L99.8032712,28.3189876 C99.906015,28.3076783 100.011653,28.3020237 100.114397,28.2935418 L100.114397,28.2935418 L100.199775,28.2836462 C103.517964,28.0334295 106.870883,28.9282723 109.695613,30.5864881 C113.851669,33.661185 115.006451,37.0652631 115.16129,43.3857089 L115.16129,43.3857089 L115.16129,86.5007336 C114.672172,93.7895321 109.864923,97.6841481 105.705972,99.4667655 C103.892762,100.112805 103.050552,100.273962 100.904511,100.273962 C97.2578311,100.273962 92.6112091,98.9776413 89.6244051,95.2484228 C88.2843951,93.9619979 85.6434468,87.6302429 85.6434468,87.6302429 L85.6434468,87.6302429 L70.3751476,48.0846938 C69.4258532,45.8553619 67.2450811,44.6014511 65.4145059,44.4091942 C63.5144702,44.3611299 61.652059,45.4439887 60.7577543,47.7567262 L60.7577543,47.7567262 L56.1038968,60.2505977 L47.9799055,39.3412456 C51.9623109,32.3606235 55.7710649,30.750472 60.2469297,29.1219429 C61.7605911,28.6596781 63.8646672,28.3727064 65.5924986,28.2582004 L65.5924986,28.2582004 L65.5924986,28.2440639 C65.6995836,28.2398229 65.8066687,28.2440639 65.9123066,28.2412366 C66.0193916,28.2341683 66.132265,28.2271001 66.2393501,28.2228591 L66.2393501,28.2228591 Z" id="path-1"></path>
    </defs>
    <g id="Wireframes-v3" stroke="none" stroke-width="1" fill="none" fill-rule="evenodd">
        <g id="component_landing" transform="translate(-41.000000, -4.000000)">
            <g id="zz_materials/DLS/logo/dark_theme" transform="translate(41.000000, -24.000000)">
                <path d="M159.774194,96.4285714 C178.548387,96.4285714 192.774194,85.6512605 192.774194,61.4495798 C192.774194,39.5168067 179.225806,30.2521008 161.032258,30.2521008 L136.451613,30.2521008 L136.451613,96.4285714 L159.774194,96.4285714 Z M159.580645,83.0042017 L152.419355,83.0042017 L152.419355,43.1092437 L160.451613,43.1092437 C171.677419,43.1092437 176.806452,49.0651261 176.806452,62.1113445 C176.806452,73.9285714 172.935484,83.0042017 159.580645,83.0042017 Z M240.774194,96.4285714 L240.774194,83.0042017 L217.064516,83.0042017 L217.064516,30.2521008 L201.096774,30.2521008 L201.096774,96.4285714 L240.774194,96.4285714 Z M270.483871,96.9957983 C284.516129,96.9957983 295.258065,89.9054622 295.258065,75.8193277 C295.258065,53.4138655 262.064516,58.0462185 262.064516,48.2142857 C262.16129,44.5273109 264.967742,43.0147059 270,43.0147059 C278.129032,43.0147059 288.677419,48.4978992 288.677419,48.4978992 L294.483871,36.6806723 C294.483871,36.6806723 283.258065,29.7794118 269.709677,29.7794118 C256.354839,29.7794118 246.193548,35.9243697 246.193548,48.6869748 C246.193548,70.5252101 279.193548,67.0273109 279.193548,77.6155462 C279.096774,81.8697479 275.806452,83.7605042 269.516129,83.7605042 C259.548387,83.7605042 251.516129,76.9537815 251.516129,76.9537815 L243.774194,88.5819328 C243.774194,88.5819328 253.354839,96.9957983 270.483871,96.9957983 Z" id="DLS" fill="#FFFFFF" fill-rule="nonzero"></path>
                <g id="icons-logo/logo-abc" transform="translate(-15.483871, 0.000000)">
                    <rect id="base-icon-size" x="0" y="0" width="131.612903" height="128.571429"></rect>
                    <mask id="mask-2" fill="white">
                        <use xlink:href="#path-1"></use>
                    </mask>
                    <use id="abc-logo" fill="#000000" fill-rule="evenodd" xlink:href="#path-1"></use>
                    <g id="Colour/Black" stroke-width="1" fill-rule="evenodd" mask="url(#mask-2)" fill="#FFFFFF">
                        <g id="colour/_brand_agnostic/white">
                            <rect id="Colour" x="0" y="0" width="131.612903" height="128.571429"></rect>
                        </g>
                    </g>
                </g>
            </g>
        </g>
    </g>
</svg>